Coordinates
version=1
nRows=13
nColumns=40
inDegrees=yes

Units are S.I. units (second, meters, Newtons, ...)
Angles are in degrees.

endheader
time	pelvis_tilt	pelvis_list	pelvis_rotation	pelvis_tx	pelvis_ty	pelvis_tz	hip_flexion_r	hip_adduction_r	hip_rotation_r	knee_angle_r	knee_angle_r_beta	ankle_angle_r	subtalar_angle_r	mtp_angle_r	hip_flexion_l	hip_adduction_l	hip_rotation_l	knee_angle_l	knee_angle_l_beta	ankle_angle_l	subtalar_angle_l	mtp_angle_l	lumbar_extension	lumbar_bending	lumbar_rotation	arm_flex_r	arm_add_r	arm_rot_r	elbow_flex_r	pro_sup_r	wrist_flex_r	wrist_dev_r	arm_flex_l	arm_add_l	arm_rot_l	elbow_flex_l	pro_sup_l	wrist_flex_l	wrist_dev_l
      9.76750000	     -3.34734233	     -3.79458334	      5.37797404	      1.00887144	      0.92627406	      0.48060905	      1.50173648	     -2.19043828	    -16.21665273	     25.02508556	     25.02508556	     16.11611044	     -0.34869279	     -7.93863856	     23.00915714	     -3.19664476	      2.27049032	     25.38020976	     25.38020976	      8.62734208	    -14.11586772	      4.66625255	     -8.47857991	      2.36205648	      2.64268976	     26.48046869	    -12.79042841	     -3.72008904	     62.96442687	     45.07194253	      0.00000000	      0.00000000	      2.26252443	     -9.28078586	     -6.24370163	     31.07398362	     45.50389591	      0.00000000	      0.00000000
      9.78085714	     -3.31266154	     -3.73576545	      4.93987207	      1.00972744	      0.92698597	      0.47804388	      2.52953819	     -2.97311929	    -15.79554376	     27.71959415	     27.71959415	     15.52298671	     -0.62598765	     -8.81750046	     22.38119977	     -3.13389499	      1.80585329	     25.27028166	     25.27028166	      8.97974414	    -14.09404717	      4.56546350	     -8.60377775	      2.35613935	      2.99977015	     25.01532891	    -13.10969848	     -3.43284437	     61.29336041	     45.11574670	      0.00000000	      0.00000000	      3.21773204	     -9.34191602	     -6.23131934	     31.88259138	     45.52167893	      0.00000000	      0.00000000
      9.79421429	     -3.33374489	     -3.76412229	      4.50453171	      1.01043713	      0.92758302	      0.47553515	      3.63529839	     -3.62937782	    -15.29472465	     30.19675017	     30.19675017	     13.54344023	     -1.56862376	    -12.96495729	     21.81129306	     -3.13416034	      1.44303510	     25.11681778	     25.11681778	      9.31074460	    -14.14424018	      4.49326796	     -8.50397928	      2.44731913	      2.51514555	     25.28060898	    -12.74413611	     -2.11976058	     55.28338197	     45.29467406	      0.00000000	      0.00000000	      3.27309156	     -9.78922502	     -5.36834374	     33.66573703	     45.44650743	      0.00000000	      0.00000000
      9.80757143	     -3.27011952	     -3.67377731	      4.07657125	      1.01090573	      0.92811221	      0.47293693	      5.02363251	     -4.51902922	    -14.74752530	     33.44521397	     33.44521397	     12.55489108	     -1.96456140	    -13.82727810	     21.16278487	     -3.03192528	      0.92289019	     24.98392851	     24.98392851	      9.64291598	    -14.03921399	      4.34212929	     -8.71868487	      2.45057400	      2.74857996	     23.83462582	    -13.01856590	     -1.86308189	     53.79130271	     45.33172375	      0.00000000	      0.00000000	      4.26997739	     -9.88031994	     -5.35657612	     34.49510033	     45.46611993	      0.00000000	      0.00000000
      9.82092857	     -3.32507652	     -3.65175500	      3.62392179	      1.01116499	      0.92838349	      0.47038408	      6.68846026	     -5.31381665	    -14.02974646	     36.78823299	     36.78823299	     11.14185594	     -2.58111400	    -14.96409544	     20.66350295	     -2.97940258	      0.46504632	     24.85205517	     24.85205517	      9.97981709	    -13.95477358	      4.14775953	     -8.77804956	      2.57024077	      3.12624358	     22.38912093	    -13.37052335	     -1.51525428	     51.47639144	     45.39493460	      0.00000000	      0.00000000	      5.21977652	     -9.96370118	     -5.23652539	     35.51174034	     45.47308012	      0.00000000	      0.00000000
      9.83428571	     -3.27026116	     -3.73498250	      3.23458662	      1.01133170	      0.92871980	      0.46808902	      8.21169493	     -5.82497222	    -13.15501031	     39.77461528	     39.77461528	      8.05707575	     -4.55852429	    -19.57511672	     20.11321938	     -3.06579418	     -0.00052222	     24.78885776	     24.78885776	     10.23800185	    -13.85661275	      3.65585182	     -8.78975819	      2.68503807	      2.23286766	     23.30793727	    -12.71541646	     -0.07653533	     44.31181224	     45.60425595	      0.00000000	      0.00000000	      4.93358128	    -10.77704734	     -3.71661620	     38.11341959	     45.35480514	      0.00000000	      0.00000000
      9.84764286	     -3.18371320	     -3.66247800	      2.84404199	      1.01129439	      0.92894504	      0.46565831	     10.00315901	     -6.60107273	    -12.31522918	     43.38183311	     43.38183311	      6.29195637	     -5.25172187	    -19.83226529	     19.52403636	     -2.95382887	     -0.44299328	     24.72377906	     24.72377906	     10.59626744	    -13.80343774	      3.48649986	     -9.06015769	      2.71795212	      2.32877841	     21.77594922	    -12.96378962	      0.11742705	     42.96787422	     45.63649677	      0.00000000	      0.00000000	      5.96302395	    -10.93990174	     -3.73671032	     38.95968013	     45.38159894	      0.00000000	      0.00000000
      9.86100000	     -3.13999099	     -3.81206689	      2.45070203	      1.01112564	      0.92907579	      0.46356239	     11.88168750	     -6.88452867	    -11.14503785	     46.79517468	     46.79517468	      4.12723137	     -6.68969766	    -19.99910179	     19.08355893	     -3.10329185	     -0.84044322	     24.80000949	     24.80000949	     10.98893026	    -13.71799557	      3.18744128	     -9.20912193	      2.94107528	      2.64317973	     20.55015129	    -13.34766257	      0.51247683	     39.91500504	     45.72706260	      0.00000000	      0.00000000	      6.92178818	    -11.07837486	     -3.32077601	     40.51971995	     45.37913517	      0.00000000	      0.00000000
      9.87435714	     -3.08906358	     -3.80235132	      2.07582435	      1.01088621	      0.92918420	      0.46147999	     13.82063214	     -7.35757151	    -10.11540163	     50.21760954	     50.21760954	      1.93069890	     -7.78334969	    -19.55533719	     18.58267208	     -3.08095356	     -1.29204041	     24.77770876	     24.77770876	     11.36039462	    -13.51789067	      2.85646418	     -9.36452643	      3.05087559	      2.08280165	     20.34551374	    -12.90913760	      1.04795051	     35.51432956	     45.87051944	      0.00000000	      0.00000000	      7.05381764	    -11.89903363	     -2.15398260	     42.53406662	     45.33636778	      0.00000000	      0.00000000
      9.88771429	     -3.03144171	     -3.78399038	      1.70685056	      1.01055816	      0.92926205	      0.45952142	     15.74289634	     -7.74297735	     -9.05489469	     53.44770653	     53.44770653	     -0.18955493	     -8.72620391	    -18.89922507	     18.08326773	     -3.01590992	     -1.62215825	     24.75048561	     24.75048561	     11.71480354	    -13.55295242	      2.72749044	     -9.57556214	      3.12630809	      2.04546008	     18.72513033	    -13.10534595	      1.13988477	     34.33709490	     45.90071733	      0.00000000	      0.00000000	      8.08052201	    -12.11944864	     -2.21954570	     43.37401652	     45.37096060	      0.00000000	      0.00000000
      9.90107143	     -2.91282153	     -3.79371812	      1.39012115	      1.01022835	      0.92948583	      0.45774416	     17.52389755	     -7.96037575	     -8.02225698	     56.37955610	     56.37955610	     -2.19010529	     -9.76842172	    -17.91979377	     17.54020876	     -2.98736714	     -1.93638788	     24.74915735	     24.74915735	     12.05364119	    -13.54321927	      2.59991926	     -9.84637939	      3.21015473	      1.97369366	     17.09035901	    -13.26016166	      1.22567729	     33.11036192	     45.93346212	      0.00000000	      0.00000000	      9.13581780	    -12.44305243	     -2.27533738	     44.25043827	     45.40251230	      0.00000000	      0.00000000
      9.91442857	     -2.85179913	     -4.01498185	      1.01339380	      1.00993806	      0.92971305	      0.45641132	     19.42425931	     -7.76288487	     -6.93310523	     59.30790720	     59.30790720	     -2.40574043	     -9.81488009	    -12.06505056	     17.07219855	     -3.27250864	     -2.39358854	     24.78521611	     24.78521611	     12.56384206	    -13.16961142	      2.39698018	    -10.01973752	      3.50528325	      1.86290386	     16.27569579	    -13.15024978	      1.06627255	     29.53317255	     46.09403139	      0.00000000	      0.00000000	      9.43567349	    -13.11903926	     -1.06141730	     46.69649424	     45.39102375	      0.00000000	      0.00000000
      9.92778571	     -2.75871758	     -4.10909219	      0.65241169	      1.00967904	      0.93011156	      0.45509622	     21.00659129	     -7.63152493	     -5.96734784	     61.48447793	     61.48447793	     -3.75003504	    -10.83957825	    -10.58359502	     16.48389110	     -3.33597275	     -2.63385212	     24.66012299	     24.66012299	     12.87553343	    -13.26989085	      2.38137532	    -10.24144916	      3.66572749	      1.96154998	     14.48421546	    -13.37916241	      0.98068772	     28.46847566	     46.13223692	      0.00000000	      0.00000000	     10.43272786	    -13.29768553	     -1.19200454	     47.67144067	     45.44881776	      0.00000000	      0.00000000
